<svg width="164" height="68" viewBox="0 0 164 68" fill="none" xmlns="http://www.w3.org/2000/svg">
<path d="M2.56539 28H0.265391V26H7.06539V28H4.76539V40H2.56539V28ZM8.13055 26H10.3305V31.7H12.6905V26H14.8905V40H12.6905V33.7H10.3305V40H8.13055V26ZM16.529 26H22.529V28H18.729V31.7H21.749V33.7H18.729V38H22.529V40H16.529V26Z" fill="#E23125"/>
<path d="M29.2649 14.4H36.8009L40.1609 38.448H40.2569L43.6169 14.4H51.1529V48H46.1609V22.56H46.0649L42.2249 48H37.8089L33.9689 22.56H33.8729V48H29.2649V14.4ZM62.773 48.48C60.213 48.48 58.261 47.76 56.917 46.32C55.573 44.848 54.901 42.752 54.901 40.032V14.4H60.181V40.416C60.181 41.568 60.405 42.4 60.853 42.912C61.333 43.424 62.005 43.68 62.869 43.68C63.733 43.68 64.389 43.424 64.837 42.912C65.317 42.4 65.557 41.568 65.557 40.416V14.4H70.645V40.032C70.645 42.752 69.973 44.848 68.629 46.32C67.285 47.76 65.333 48.48 62.773 48.48ZM81.2695 48.48C78.7095 48.48 76.7735 47.76 75.4615 46.32C74.1495 44.848 73.4935 42.752 73.4935 40.032V38.112H78.4855V40.416C78.4855 42.592 79.3975 43.68 81.2215 43.68C82.1175 43.68 82.7895 43.424 83.2375 42.912C83.7175 42.368 83.9575 41.504 83.9575 40.32C83.9575 38.912 83.6375 37.68 82.9975 36.624C82.3575 35.536 81.1735 34.24 79.4455 32.736C77.2695 30.816 75.7495 29.088 74.8855 27.552C74.0215 25.984 73.5895 24.224 73.5895 22.272C73.5895 19.616 74.2615 17.568 75.6055 16.128C76.9495 14.656 78.9015 13.92 81.4615 13.92C83.9895 13.92 85.8935 14.656 87.1735 16.128C88.4855 17.568 89.1415 19.648 89.1415 22.368V23.76H84.1495V22.032C84.1495 20.88 83.9255 20.048 83.4775 19.536C83.0295 18.992 82.3735 18.72 81.5095 18.72C79.7495 18.72 78.8695 19.792 78.8695 21.936C78.8695 23.152 79.1895 24.288 79.8295 25.344C80.5015 26.4 81.7015 27.68 83.4295 29.184C85.6375 31.104 87.1575 32.848 87.9895 34.416C88.8215 35.984 89.2375 37.824 89.2375 39.936C89.2375 42.688 88.5495 44.8 87.1735 46.272C85.8295 47.744 83.8615 48.48 81.2695 48.48ZM96.3929 19.2H90.8729V14.4H107.193V19.2H101.673V48H96.3929V19.2ZM111.626 14.4H118.778L124.25 48H118.97L118.01 41.328V41.424H112.01L111.05 48H106.154L111.626 14.4ZM117.386 36.864L115.034 20.256H114.938L112.634 36.864H117.386ZM126.812 14.4H134.636C137.356 14.4 139.34 15.04 140.588 16.32C141.836 17.568 142.46 19.504 142.46 22.128V24.192C142.46 27.68 141.308 29.888 139.004 30.816V30.912C140.284 31.296 141.18 32.08 141.692 33.264C142.236 34.448 142.508 36.032 142.508 38.016V43.92C142.508 44.88 142.54 45.664 142.604 46.272C142.668 46.848 142.828 47.424 143.084 48H137.708C137.516 47.456 137.388 46.944 137.324 46.464C137.26 45.984 137.228 45.12 137.228 43.872V37.728C137.228 36.192 136.972 35.12 136.46 34.512C135.98 33.904 135.132 33.6 133.916 33.6H132.092V48H126.812V14.4ZM134.012 28.8C135.068 28.8 135.852 28.528 136.364 27.984C136.908 27.44 137.18 26.528 137.18 25.248V22.656C137.18 21.44 136.956 20.56 136.508 20.016C136.092 19.472 135.42 19.2 134.492 19.2H132.092V28.8H134.012ZM146.171 14.4H154.235C156.859 14.4 158.827 15.104 160.139 16.512C161.451 17.92 162.107 19.984 162.107 22.704V39.696C162.107 42.416 161.451 44.48 160.139 45.888C158.827 47.296 156.859 48 154.235 48H146.171V14.4ZM154.139 43.2C155.003 43.2 155.659 42.944 156.107 42.432C156.587 41.92 156.827 41.088 156.827 39.936V22.464C156.827 21.312 156.587 20.48 156.107 19.968C155.659 19.456 155.003 19.2 154.139 19.2H151.451V43.2H154.139Z" fill="#E23125"/>
</svg>
