<svg width="58" height="58" viewBox="0 0 58 58" fill="none" xmlns="http://www.w3.org/2000/svg">
<path d="M19.5971 27.4C18.1746 27.4 16.8884 27.1564 15.7387 26.6692C14.6084 26.1821 13.712 25.4805 13.0494 24.5646C12.3869 23.6487 12.0459 22.5672 12.0264 21.32H16.411C16.4694 22.1579 16.7618 22.8205 17.2879 23.3077C17.8335 23.7949 18.5741 24.0385 19.5094 24.0385C20.4643 24.0385 21.2146 23.8144 21.7602 23.3662C22.3059 22.8985 22.5787 22.2944 22.5787 21.5538C22.5787 20.9497 22.3935 20.4528 22.0233 20.0631C21.653 19.6733 21.1853 19.3713 20.6202 19.1569C20.0746 18.9231 19.3146 18.6697 18.3402 18.3969C17.0151 18.0072 15.9335 17.6272 15.0956 17.2569C14.2771 16.8672 13.5659 16.2923 12.9618 15.5323C12.3771 14.7528 12.0848 13.72 12.0848 12.4338C12.0848 11.2256 12.3869 10.1733 12.991 9.27692C13.5951 8.38051 14.4428 7.69846 15.5341 7.23077C16.6253 6.74359 17.8725 6.5 19.2756 6.5C21.3802 6.5 23.0853 7.01641 24.391 8.04923C25.7161 9.06256 26.4469 10.4851 26.5833 12.3169H22.0818C22.0428 11.6154 21.7407 11.0405 21.1756 10.5923C20.63 10.1246 19.8992 9.89077 18.9833 9.89077C18.1843 9.89077 17.5412 10.0954 17.0541 10.5046C16.5864 10.9138 16.3525 11.5082 16.3525 12.2877C16.3525 12.8333 16.5279 13.2913 16.8787 13.6615C17.2489 14.0123 17.6971 14.3046 18.2233 14.5385C18.7689 14.7528 19.5289 15.0062 20.5033 15.2985C21.8284 15.6882 22.91 16.0779 23.7479 16.4677C24.5859 16.8574 25.3069 17.4421 25.911 18.2215C26.5151 19.001 26.8171 20.0241 26.8171 21.2908C26.8171 22.3821 26.5346 23.3954 25.9694 24.3308C25.4043 25.2662 24.5761 26.0164 23.4848 26.5815C22.3935 27.1272 21.0976 27.4 19.5971 27.4Z" fill="#E23125"/>
<path d="M33.9351 6.79297V19.4207C33.9351 20.8043 34.2956 21.8663 35.0166 22.6068C35.7376 23.3278 36.751 23.6884 38.0566 23.6884C39.3817 23.6884 40.4048 23.3278 41.1259 22.6068C41.8469 21.8663 42.2074 20.8043 42.2074 19.4207V6.79297H46.3289V19.3914C46.3289 21.1258 45.9489 22.5971 45.1889 23.8053C44.4484 24.994 43.4448 25.8904 42.1782 26.4945C40.931 27.0986 39.5376 27.4007 37.9982 27.4007C36.4782 27.4007 35.0946 27.0986 33.8474 26.4945C32.6197 25.8904 31.6453 24.994 30.9243 23.8053C30.2033 22.5971 29.8428 21.1258 29.8428 19.3914V6.79297H33.9351Z" fill="#E23125"/>
<path d="M38.6548 29.8852C40.0774 29.8852 41.3635 30.1287 42.5133 30.6159C43.6435 31.1031 44.5399 31.8046 45.2025 32.7205C45.8651 33.6364 46.2061 34.718 46.2256 35.9652H41.841C41.7825 35.1272 41.4902 34.4646 40.964 33.9775C40.4184 33.4903 39.6779 33.2467 38.7425 33.2467C37.7876 33.2467 37.0374 33.4708 36.4917 33.919C35.9461 34.3867 35.6733 34.9908 35.6733 35.7313C35.6733 36.3354 35.8584 36.8323 36.2287 37.2221C36.5989 37.6118 37.0666 37.9139 37.6317 38.1282C38.1774 38.3621 38.9374 38.6154 39.9117 38.8882C41.2369 39.278 42.3184 39.658 43.1564 40.0282C43.9748 40.418 44.6861 40.9928 45.2902 41.7528C45.8748 42.5323 46.1671 43.5652 46.1671 44.8513C46.1671 46.0595 45.8651 47.1118 45.261 48.0082C44.6569 48.9046 43.8092 49.5867 42.7179 50.0544C41.6266 50.5416 40.3794 50.7852 38.9764 50.7852C36.8717 50.7852 35.1666 50.2687 33.861 49.2359C32.5358 48.2226 31.8051 46.8 31.6687 44.9682H36.1702C36.2092 45.6698 36.5112 46.2446 37.0764 46.6928C37.622 47.1605 38.3528 47.3944 39.2687 47.3944C40.0676 47.3944 40.7107 47.1898 41.1979 46.7805C41.6656 46.3713 41.8994 45.777 41.8994 44.9975C41.8994 44.4518 41.724 43.9939 41.3733 43.6236C41.003 43.2728 40.5548 42.9805 40.0287 42.7467C39.483 42.5323 38.723 42.279 37.7487 41.9867C36.4235 41.597 35.342 41.2072 34.504 40.8175C33.6661 40.4277 32.9451 39.8431 32.341 39.0636C31.7369 38.2841 31.4348 37.2611 31.4348 35.9944C31.4348 34.9031 31.7174 33.8898 32.2825 32.9544C32.8476 32.019 33.6758 31.2687 34.7671 30.7036C35.8584 30.158 37.1543 29.8852 38.6548 29.8852Z" fill="#E23125"/>
<path d="M24.4184 50.7852V38.1575C24.4184 36.7739 24.0579 35.7118 23.3369 34.9713C22.6159 34.2503 21.6025 33.8898 20.2969 33.8898C18.9718 33.8898 17.9487 34.2503 17.2277 34.9713C16.5066 35.7118 16.1461 36.7739 16.1461 38.1575V50.7852H12.0246V38.1867C12.0246 36.4523 12.4046 34.9811 13.1646 33.7728C13.9051 32.5841 14.9087 31.6877 16.1754 31.0836C17.4225 30.4795 18.8159 30.1775 20.3554 30.1775C21.8754 30.1775 23.2589 30.4795 24.5061 31.0836C25.7338 31.6877 26.7082 32.5841 27.4292 33.7728C28.1502 34.9811 28.5107 36.4523 28.5107 38.1867V50.7852H24.4184Z" fill="#E23125"/>
<rect x="1.33301" y="1.5" width="55" height="55" stroke="#E23125" stroke-width="2"/>
</svg>
